<svg version="1.2" xmlns="http://www.w3.org/2000/svg" viewBox="0 0 275 53" width="275" height="53"><style>.a{fill:#fff}.b{fill:#231f20}</style><path class="a" d="m44.8 38.1q-0.6 0.3-1.1 0.5-0.6 0.2-1.2 0.4-0.5 0.2-1.1 0.3-0.6 0.1-1.2 0.1-0.3 0-0.7 0-0.3-0.1-0.6-0.2-0.3-0.1-0.6-0.2-0.2-0.2-0.5-0.3c-4.3-2.9-2.8-6.3 0.1-11.6q0.5-0.8 0.9-1.6 0.5-0.9 0.9-1.7 0.4-0.9 0.7-1.8 0.3-0.9 0.6-1.8c0.6-2.5 1.2-6.3-1.1-9.1q-0.4-0.5-1-1-0.5-0.5-1.1-0.8-0.6-0.4-1.2-0.7-0.7-0.3-1.4-0.5-1-0.3-2-0.5-1-0.2-2.1-0.4-1-0.1-2.1-0.2-1-0.1-2.1 0l-1.1-0.1q-1 0-2.1 0.1-1 0.1-2.1 0.2-1 0.2-2 0.4-1.1 0.2-2.1 0.5-0.7 0.2-1.3 0.5-0.7 0.3-1.3 0.7-0.6 0.3-1.1 0.8-0.5 0.5-1 1c-2.2 2.8-1.7 6.5-1 9.1q0.2 0.9 0.6 1.8 0.3 0.9 0.7 1.8 0.4 0.8 0.8 1.7 0.4 0.8 0.9 1.6c2.9 5.3 4.4 8.7 0.1 11.6q-0.2 0.1-0.5 0.3-0.3 0.1-0.6 0.2-0.3 0.1-0.6 0.2-0.3 0-0.6 0-0.6 0-1.2-0.1-0.6-0.2-1.2-0.3-0.6-0.2-1.1-0.4-0.6-0.2-1.1-0.5l0.3 0.4c2 3.2 4.7 4.8 7.7 4.8q0.5 0 1.1 0 0.5-0.1 1-0.2 0.5-0.2 1-0.3 0.6-0.2 1-0.4 0.6-0.3 1.2-0.7 0.5-0.3 1-0.8 0.5-0.4 0.9-0.9 0.4-0.5 0.7-1.1 0.3-0.5 0.5-1.1 0.3-0.6 0.4-1.2 0.1-0.6 0.1-1.2 0.1-0.6 0-1.2-0.2-0.7-0.4-1.3-0.2-0.7-0.4-1.3-0.3-0.7-0.5-1.3-0.2-0.7-0.5-1.3c-2.1-5.4-5-12.9-2.5-16.5q1.5-2.3 5.8-2.3c2.8 0 4.7 0.8 5.7 2.3 2.5 3.6-0.4 11.1-2.5 16.5q-0.2 0.6-0.5 1.3-0.2 0.6-0.5 1.3-0.2 0.6-0.4 1.3-0.2 0.6-0.4 1.3-0.1 0.6-0.1 1.2 0.1 0.7 0.2 1.3 0.1 0.6 0.4 1.1 0.2 0.6 0.5 1.1 0.3 0.6 0.7 1.1 0.4 0.5 0.9 1 0.5 0.4 1 0.8 0.6 0.3 1.2 0.6 0.4 0.2 0.9 0.4 0.5 0.2 1.1 0.3 0.5 0.1 1 0.2 0.6 0.1 1.1 0.1c3 0 5.7-1.7 7.8-4.9z"/><path class="b" d="m75.7 43.1h-5.5v-36h5.5z"/><path class="b" d="m103 43.1h-5.6v-2.4q-0.6 0.7-1.3 1.3-0.8 0.5-1.6 0.9-0.9 0.4-1.8 0.5-0.9 0.2-1.8 0.2c-5.6 0-8.7-3.7-8.7-9.1v-16h5.6v15c0 3 1.4 5 4.6 5q0.8 0 1.7-0.3 0.8-0.2 1.5-0.8 0.7-0.5 1.2-1.2 0.4-0.8 0.7-1.6v-16.1h5.5z"/><path class="b" d="m115.3 43.1h-5.5v-36h5.5z"/><path class="b" d="m142.6 43.1h-5.5v-2.4q-0.7 0.7-1.4 1.3-0.8 0.5-1.6 0.9-0.9 0.4-1.8 0.5-0.9 0.2-1.8 0.2c-5.6 0-8.6-3.7-8.6-9.1v-16h5.5v15c0 3 1.4 5 4.6 5q0.9 0 1.7-0.3 0.8-0.2 1.5-0.8 0.7-0.5 1.2-1.2 0.5-0.8 0.7-1.6v-16.1h5.5z"/><path class="b" d="m155 43.1h-5.5v-36h5.5z"/><path class="b" d="m182.1 35.4c-0.9 4.9-4.4 8.2-10.4 8.2-6.8 0-11.6-5.2-11.6-12.8 0-7.3 4.8-12.8 11.5-12.8 6.9 0 10.7 4.9 10.7 12.1v2h-16.8c0.2 4.3 2.7 6.9 6.2 6.9 2.7 0 4.7-1.2 5.3-3.6zm-16.4-7.4h11.1c0-3-1.7-5.4-5.1-5.4-3.1 0-5.3 1.9-6 5.4z"/><path class="b" d="m212.8 18c5 0 8 3.5 8 9.1v16h-5.5v-15.1c0-3-1.4-5-4-5q-0.8 0-1.6 0.2-0.7 0.3-1.3 0.8-0.6 0.5-1 1.2-0.4 0.7-0.5 1.4v16.5h-5.6v-15.1c0-3-1.3-5-4-5q-0.8 0-1.5 0.2-0.8 0.3-1.4 0.8-0.6 0.5-1 1.2-0.3 0.7-0.5 1.4v16.5h-5.5v-24.6h5.5v2q0.6-0.6 1.3-1.1 0.7-0.5 1.5-0.8 0.8-0.4 1.6-0.5 0.8-0.1 1.7-0.1 0.9 0 1.9 0.2 0.9 0.2 1.7 0.6 0.9 0.5 1.6 1.1 0.7 0.6 1.3 1.4 0.6-0.8 1.5-1.5 0.8-0.6 1.8-1 0.9-0.5 1.9-0.6 1.1-0.2 2.1-0.2z"/><path class="b" d="m237.2 43.6c-6.9 0-11.6-5.3-11.6-12.8 0-7.5 4.7-12.8 11.6-12.8 6.9 0 11.7 5.3 11.7 12.8 0 7.5-4.8 12.8-11.7 12.8zm0-20.9c-4 0-6.1 3.4-6.1 8.1 0 4.6 2.2 8.1 6.1 8.1 4 0 6.2-3.5 6.2-8.1 0-4.7-2.2-8.1-6.2-8.1z"/><path class="b" d="m254 18.5h5.5v2.3q0.7-0.6 1.4-1.2 0.8-0.5 1.7-0.9 0.8-0.4 1.7-0.5 1-0.2 1.9-0.2c5.6 0 8.7 3.7 8.7 9.1v16h-5.5v-15.1c0-3-1.5-5-4.7-5q-0.9 0-1.7 0.3-0.8 0.2-1.5 0.8-0.7 0.5-1.2 1.2-0.5 0.8-0.7 1.6v16.2h-5.6z"/></svg>