<svg version="1.2" xmlns="http://www.w3.org/2000/svg" viewBox="0 0 845 513" width="845" height="513"><style></style><path  d="m616.7 200.2c67.1-29.5 110.9-73.8 113.3-123 0 0-17.7-13.7-74.9-34.7-50.2-18.5-88.5-22.7-88.5-22.7l0.1 109.5c0 16.4-6.5 33.1-18.9 47.9-38-9.1-80-14.3-124-14.3-44 0-86 5.2-124.1 14.4-12.4-14.8-19-31.6-19-48l0.2-109.5c0 0-38.3 4.2-88.5 22.7-57.2 21-74.9 34.7-74.9 34.7 2.3 49.2 46.2 93.5 113.4 123-67.2 29.5-111 73.9-113.4 123 0 0 17.7 13.7 74.9 34.7 50.3 18.5 88.6 22.7 88.6 22.7l-0.2-109.5c0-16.4 6.6-33.1 19-47.9 38 9.2 79.9 14.3 123.9 14.3 44.1 0 86.1-5.1 124.1-14.4 12.4 14.8 19 31.6 19 48l-0.2 109.6c0 0 38.3-4.3 88.6-22.8 57.2-21 74.9-34.6 74.9-34.6-2.4-49.2-46.2-93.6-113.4-123.1zm-192.9 24.7h-0.1l-1.2-0.1c-39.8 0-72.2-9.7-95.9-24.6 23.7-14.9 56.1-24.6 95.9-24.6h1.3 1.3c39.7 0 72.1 9.7 95.9 24.6-23.8 14.9-56.2 24.6-96 24.6"/><path  d="m29.6 502.1c-19.2 0-19.5-14.7-19.5-20.4v-26.7c0-1.6-0.2-3.8 3.3-3.8h9.9c3.2 0 3 2.3 3 3.8v26.7c0 1.9 0.4 7 7.4 7h16.7c6.8 0 7.2-5.1 7.2-7v-26.7c0-1.5-0.2-3.8 3-3.8h10.1c3.6 0 3.3 2.3 3.3 3.8v26.7c0 5.7-0.4 20.4-19.7 20.4"/><path  d="m121.8 498.8c-6.8-9.1-16.5-20.6-26.3-32.8v32.5c0 1.4 0.3 3.6-3.1 3.6h-9.3c-3.3 0-2.9-2.2-2.9-3.6v-43.5c0-1.5-0.2-3.8 2.9-3.8h18.2c5.1 0 12.3 10.3 17.1 17.1 3.7 5.2 10.5 13 15.1 18.9v-32.2c0-1.4-0.2-3.7 3.1-3.7h10.1c3.3 0 3.1 2.3 3.1 3.7v47.1h-18.6c-4 0-5.7 0.2-9.4-3.3"/><path  d="m155.9 502.1v-50.8h44.8c2.8 0 21.1-0.3 21.1 19 0 19.3 2.2 31.8-20.7 31.8h-24.2l-5.2-10.6v10.6m26.6-13.4c8.2 0 7.6-7.8 7.6-11.4 0-12-3.4-12.4-8.8-12.4h-25.5v23.8c0 0 26.7 0 26.7 0z"/><path  d="m239.4 451.7h41.3c3.5 0 3 2.2 3 6.5 0 3.9 0.6 6.2-3 6.2h-32.6c-0.9 0-3.9-0.5-3.9 2.6 0 3.1-0.6 4.3 2.7 4.3h28.9c0 0 4.2 8 4.6 9.3 0.7 1.2 0.6 2.3-1.9 2.3h-29.9l-4.7-9v13.4c0 3 2.8 2.4 3.6 2.4h33.9c3.4 0 3.1 2.4 3.1 6.2 0 4.1 0.3 6.4-3.1 6.4h-42.9c-3.6 0-10.6-1.1-10.6-12.2v-28c0-2.9 1.6-10.4 11.5-10.4z"/><path  d="m294.9 451.3h45.2c6.1 0 14.9 0 14.9 16.3 0 10.7-2.3 11.2-7.2 14.5 8.2 1.4 7.1 11.9 7.1 17.3 0 2.7-1 2.7-1.8 2.7h-13.3c-2.7 0-2.1-4.4-2.1-6.7 0-6.2-3.4-6-4.8-6h-19.5c-1.9-3.2-5.5-10.5-5.5-10.5v21.1c0 1.8-1.9 2.1-2.5 2.1h-13.3c0.7 0-1.4 0.1-1.4-1.7v-44.7c0-3.2 2.2-4.4 4.2-4.4m36 13.4h-20.1c-3.4 0-3.3 1.2-3.3 2.2v9.1h20.7c10.1 0 10.1-2.5 10.1-5.2 0-5.2-0.4-6.1-7.4-6.1z"/><path  d="m432.8 451.7c3.3 0 6.5 1.4 10 8.2 2.4 4.9 18.8 34.5 22.2 40.7v1.7h-17.1l-4.9-8.9h-20.8c0 0-3.5-8-4.5-10.2-1.2 2.1-8.1 15.2-10.5 19.1h-17.1v-1.1c3.5-6.5 27.4-49.5 27.4-49.5m9.9 14l-8.3 15.2 0.7 0.8h15.6l0.8-0.8c-0.6-1.1-7.3-13.9-7.9-15.3l-0.9 0.1"/><path  d="m473.9 451.3h45.2c6.1 0 14.9 0 14.9 16.3 0 10.7-2.3 11.2-7.2 14.5 8.2 1.4 7.1 11.9 7.1 17.3 0 2.7-1 2.7-1.8 2.7h-13.3c-2.7 0-2-4.4-2-6.7 0-6.2-3.5-6-4.9-6h-19.5c-1.9-3.2-5.5-10.5-5.5-10.5v21.1c0 1.8-1.8 2.1-2.5 2.1h-13.3c0.7 0-1.4 0.1-1.4-1.7v-44.7c0-3.2 2.2-4.4 4.2-4.4m36 13.4h-20.1c-3.4 0-3.3 1.2-3.3 2.2v9.1h20.7c10.1 0 10.1-2.5 10.1-5.2 0-5.2-0.4-6.1-7.4-6.1z"/><path  d="m573.5 502.1c-3.4-6.4-12.8-23.8-19.1-35.2v31.6c0 1.4 0.2 3.6-3 3.6h-9.2c-3.4 0-3.1-2.2-3.1-3.6v-43.5c0-1.5-0.2-3.7 3.1-3.7h15.8c2.4 0 5.7-0.5 9.5 7 2.9 6 8.9 18.6 13 25.2 4.2-6.6 10.3-19.2 13.2-25.2 3.7-7.5 6.9-7 9.6-7h15.7c3.2 0 2.9 2.2 2.9 3.7v43.5c0 1.4 0.5 3.6-2.9 3.6h-9.2c-3.4 0-3.1-2.2-3.1-3.6v-31.6c-6.4 11.4-15.7 28.8-19.2 35.2"/><path  d="m642.2 502.2c-15 0-14.3-16.1-14.3-26.5 0-9.6-1.1-24.5 17.7-24.6h33.3c18.9 0 17.6 15.1 17.6 24.6 0 10.4 0.8 26.5-14.4 26.5m-9.7-13.1c7.6 0 7.3-7.8 7.3-13.1 0-4.7 1.1-12.1-8.8-12.1h-16.8c-9.8 0-8.6 7.4-8.6 12.1 0 5.3-0.5 13.1 7.1 13.1z"/><path  d="m721.6 502.1c-19.2 0-19.6-14.7-19.6-20.4v-26.7c0-1.6-0.1-3.8 3.3-3.8h10c3.2 0 3 2.3 3 3.8v26.7c0 1.9 0.3 7 7.3 7h16.7c6.9 0 7.3-5.1 7.3-7v-26.7c0-1.5-0.2-3.8 3-3.8h10c3.7 0 3.4 2.3 3.4 3.8v26.7c0 5.7-0.4 20.4-19.7 20.4"/><path  d="m776.6 451.3h45.3c6 0 14.8 0 14.8 16.3 0 10.7-2.2 11.2-7.1 14.5 8.1 1.4 7.1 11.9 7.1 17.3 0 2.7-1 2.7-1.9 2.7h-13.2c-2.8 0-2.1-4.4-2.1-6.7 0-6.2-3.5-6-4.8-6h-19.6c-1.8-3.2-5.5-10.5-5.5-10.5v21.1c0 1.8-1.8 2.1-2.5 2.1h-13.3c0.8 0-1.3 0.1-1.3-1.7v-44.7c0-3.2 2.2-4.4 4.1-4.4zm36 13.4h-20.1c-3.3 0-3.2 1.2-3.2 2.2v9.1h20.7c10 0 10-2.5 10-5.2 0-5.2-0.4-6.1-7.4-6.1z"/></svg>